<svg width="36" height="36" viewBox="0 0 36 36" fill="none" xmlns="http://www.w3.org/2000/svg">
<path fill-rule="evenodd" clip-rule="evenodd" d="M13.5 7.875C13.5 7.57663 13.6185 7.29048 13.8295 7.0795C14.0405 6.86853 14.3266 6.75 14.625 6.75H32.625C32.9234 6.75 33.2095 6.86853 33.4205 7.0795C33.6315 7.29048 33.75 7.57663 33.75 7.875V28.125C33.75 28.4234 33.6315 28.7095 33.4205 28.9205C33.2095 29.1315 32.9234 29.25 32.625 29.25H14.625C14.3266 29.25 14.0405 29.1315 13.8295 28.9205C13.6185 28.7095 13.5 28.4234 13.5 28.125V23.625C13.5 23.3266 13.3815 23.0405 13.1705 22.8295C12.9595 22.6185 12.6734 22.5 12.375 22.5C12.0766 22.5 11.7905 22.6185 11.5795 22.8295C11.3685 23.0405 11.25 23.3266 11.25 23.625V28.125C11.25 29.0201 11.6056 29.8786 12.2385 30.5115C12.8714 31.1444 13.7299 31.5 14.625 31.5H32.625C33.5201 31.5 34.3786 31.1444 35.0115 30.5115C35.6444 29.8786 36 29.0201 36 28.125V7.875C36 6.97989 35.6444 6.12145 35.0115 5.48851C34.3786 4.85558 33.5201 4.5 32.625 4.5H14.625C13.7299 4.5 12.8714 4.85558 12.2385 5.48851C11.6056 6.12145 11.25 6.97989 11.25 7.875V12.375C11.25 12.6734 11.3685 12.9595 11.5795 13.1705C11.7905 13.3815 12.0766 13.5 12.375 13.5C12.6734 13.5 12.9595 13.3815 13.1705 13.1705C13.3815 12.9595 13.5 12.6734 13.5 12.375V7.875Z" fill="#003B5C"/>
<path fill-rule="evenodd" clip-rule="evenodd" d="M26.6715 18.7965C26.7763 18.692 26.8594 18.5678 26.9161 18.4312C26.9728 18.2945 27.002 18.148 27.002 18C27.002 17.852 26.9728 17.7055 26.9161 17.5688C26.8594 17.4321 26.7763 17.308 26.6715 17.2035L19.9215 10.4535C19.8169 10.3489 19.6927 10.2659 19.5561 10.2093C19.4194 10.1527 19.2729 10.1236 19.125 10.1236C18.9771 10.1236 18.8306 10.1527 18.6939 10.2093C18.5573 10.2659 18.4331 10.3489 18.3285 10.4535C18.2239 10.5581 18.1409 10.6823 18.0843 10.8189C18.0277 10.9556 17.9986 11.1021 17.9986 11.25C17.9986 11.3979 18.0277 11.5444 18.0843 11.6811C18.1409 11.8177 18.2239 11.9419 18.3285 12.0465L23.1593 16.875H3.375C3.07663 16.875 2.79048 16.9935 2.5795 17.2045C2.36853 17.4155 2.25 17.7016 2.25 18C2.25 18.2984 2.36853 18.5845 2.5795 18.7955C2.79048 19.0065 3.07663 19.125 3.375 19.125H23.1593L18.3285 23.9535C18.2239 24.0581 18.1409 24.1823 18.0843 24.3189C18.0277 24.4556 17.9986 24.6021 17.9986 24.75C17.9986 24.8979 18.0277 25.0444 18.0843 25.181C18.1409 25.3177 18.2239 25.4419 18.3285 25.5465C18.4331 25.6511 18.5573 25.7341 18.6939 25.7907C18.8306 25.8473 18.9771 25.8764 19.125 25.8764C19.2729 25.8764 19.4194 25.8473 19.5561 25.7907C19.6927 25.7341 19.8169 25.6511 19.9215 25.5465L26.6715 18.7965Z" fill="#003B5C"/>
</svg>
