<svg width="28" height="28" viewBox="0 0 28 28" fill="none" xmlns="http://www.w3.org/2000/svg">
<path d="M15.512 27.4295C13.839 27.8495 12.2868 26.5825 12.173 24.9445C12.047 23.107 11.7705 21.4182 11.424 20.412C11.2053 19.782 10.5858 18.641 9.604 17.5455C8.62925 16.4535 7.3605 15.4822 5.87475 15.078C4.69875 14.756 3.5 13.7375 3.5 12.25V5.25C3.5 3.77125 4.6935 2.688 6.034 2.5445C7.9065 2.34675 8.771 1.81825 9.653 1.27925L9.737 1.2285C10.213 0.938 10.7485 0.61775 11.4345 0.3815C12.1293 0.14 12.9413 0 14 0H20.125C21.7648 0 22.9233 0.8365 23.5095 1.862C23.7965 2.36425 23.954 2.92425 23.954 3.45975C23.954 3.72575 23.9138 4.00575 23.8193 4.27175C24.171 4.73025 24.4843 5.2815 24.6733 5.84675C24.8658 6.42425 24.9743 7.18025 24.6803 7.85925C24.801 8.08675 24.8903 8.32825 24.9585 8.5645C25.0933 9.037 25.1563 9.55675 25.1563 10.0625C25.1563 10.5682 25.0933 11.088 24.9585 11.5605C24.8973 11.7705 24.8185 11.9875 24.717 12.1957C25.4065 13.195 25.4485 14.2957 25.1265 15.2285C24.766 16.2645 23.933 17.1535 23.0265 17.4545C21.5443 17.9497 19.8713 17.9375 18.6235 17.8237C18.3645 17.8003 18.106 17.7712 17.8483 17.7362C18.456 20.3366 18.4187 23.0461 17.7398 25.6287C17.4983 26.5177 16.7773 27.1127 15.9688 27.3157L15.512 27.4295ZM20.125 1.75H14C13.1075 1.75 12.4898 1.869 12.005 2.03525C11.5133 2.205 11.1195 2.436 10.647 2.723L10.577 2.76675C9.60575 3.35825 8.4805 4.04425 6.2195 4.28575C5.63675 4.347 5.25 4.79325 5.25 5.24825V12.25C5.25 12.6962 5.6455 13.2002 6.335 13.3875C8.25125 13.9125 9.79475 15.1322 10.9095 16.3783C12.0208 17.6207 12.7715 18.9595 13.076 19.838C13.5013 21.063 13.7883 22.932 13.9195 24.8255C13.9633 25.459 14.5495 25.8667 15.0868 25.732L15.5453 25.6182C15.8253 25.5482 15.9968 25.3662 16.0493 25.172C16.7643 22.4484 16.6761 19.5761 15.7955 16.9015C15.7461 16.7529 15.7375 16.5937 15.7706 16.4406C15.8036 16.2875 15.8772 16.1461 15.9836 16.0312C16.09 15.9162 16.2253 15.8319 16.3753 15.7871C16.5254 15.7422 16.6847 15.7385 16.8368 15.7762H16.842L16.8665 15.7832L16.968 15.806C17.5665 15.9327 18.1718 16.0245 18.781 16.0807C19.9413 16.1857 21.3308 16.1752 22.4735 15.7955C22.7798 15.6922 23.261 15.2687 23.471 14.6562C23.6583 14.1172 23.6233 13.4837 23.0055 12.8695L22.3878 12.25L23.0055 11.6305C23.0808 11.557 23.1893 11.3855 23.275 11.0792C23.359 10.787 23.4063 10.4317 23.4063 10.0625C23.4063 9.69325 23.359 9.338 23.275 9.04575C23.1875 8.74125 23.0808 8.568 23.0055 8.4945L22.3878 7.875L23.0055 7.2555C23.0878 7.17325 23.1963 6.9475 23.0143 6.4015C22.8256 5.87377 22.524 5.39359 22.1305 4.9945L21.5128 4.375L22.1305 3.7555C22.141 3.74675 22.2023 3.668 22.2023 3.458C22.1917 3.20231 22.119 2.95304 21.9905 2.73175C21.7 2.226 21.1103 1.75 20.125 1.75Z" fill="#D7D7D7"/>
</svg>
