<svg width="28" height="28" viewBox="0 0 28 28" fill="none" xmlns="http://www.w3.org/2000/svg">
<g clip-path="url(#clip0_12_289)">
<path d="M15.512 0.0806474C13.839 -0.337603 12.285 0.927647 12.173 2.56565C12.047 4.4049 11.7705 6.09365 11.424 7.09815C11.2052 7.72815 10.5857 8.8709 9.604 9.9664C8.62925 11.0566 7.3605 12.0279 5.87475 12.4339C4.69875 12.7541 3.5 13.7726 3.5 15.2601V22.2619C3.5 23.7407 4.6935 24.8239 6.034 24.9657C7.9065 25.1651 8.771 25.6919 9.653 26.2309L9.737 26.2834C10.213 26.5722 10.7485 26.8924 11.4345 27.1304C12.1292 27.3684 12.9412 27.5102 14 27.5102H20.125C21.7647 27.5102 22.9233 26.6754 23.5095 25.6482C23.7928 25.1634 23.946 24.6136 23.954 24.0522C23.954 23.7861 23.9137 23.5061 23.8193 23.2402C24.171 22.7799 24.4842 22.2286 24.6733 21.6634C24.8657 21.0859 24.9742 20.3299 24.6803 19.6526C24.801 19.4251 24.8902 19.1819 24.9585 18.9474C25.0933 18.4749 25.1562 17.9534 25.1562 17.4476C25.1562 16.9436 25.0933 16.4239 24.9585 15.9496C24.8987 15.7312 24.8178 15.519 24.717 15.3161C25.0234 14.8802 25.2206 14.3769 25.2918 13.8488C25.3631 13.3207 25.3064 12.7832 25.1265 12.2816C24.766 11.2456 23.933 10.3566 23.0265 10.0556C21.5443 9.56215 19.8713 9.57265 18.6235 9.6864C18.3645 9.7098 18.106 9.73898 17.8483 9.7739C18.4529 7.17381 18.4156 4.46563 17.7397 1.88315C17.6217 1.46943 17.3953 1.09475 17.084 0.797849C16.7726 0.500952 16.3876 0.29262 15.9688 0.194397L15.512 0.0806474ZM20.125 25.7619H14C13.1075 25.7619 12.4897 25.6412 12.005 25.4749C11.5133 25.3052 11.1195 25.0759 10.647 24.7871L10.577 24.7452C9.60575 24.1519 8.4805 23.4659 6.2195 23.2262C5.63675 23.1632 5.25 22.7187 5.25 22.2637V15.2601C5.25 14.8156 5.6455 14.3099 6.335 14.1226C8.25125 13.5976 9.79475 12.3796 10.9095 11.1336C12.0208 9.89115 12.7715 8.5524 13.076 7.67215C13.5013 6.44715 13.7882 4.57815 13.9195 2.68465C13.9633 2.05115 14.5495 1.64515 15.0868 1.77815L15.5453 1.89365C15.8253 1.96365 15.9967 2.1439 16.0492 2.3399C16.7639 5.06294 16.6758 7.93456 15.7955 10.6086C15.7457 10.7574 15.7367 10.9168 15.7696 11.0701C15.8025 11.2235 15.876 11.3652 15.9825 11.4804C16.0889 11.5956 16.2244 11.6801 16.3747 11.725C16.525 11.7699 16.6846 11.7736 16.8368 11.7356L16.842 11.7339L16.8665 11.7286L16.968 11.7041C17.5665 11.5774 18.1718 11.4857 18.781 11.4294C19.9412 11.3244 21.3307 11.3349 22.4735 11.7164C22.7798 11.8179 23.261 12.2414 23.471 12.8539C23.6582 13.3929 23.6232 14.0264 23.0055 14.6424L22.3878 15.2601L23.0055 15.8797C23.0807 15.9549 23.1893 16.1264 23.275 16.4309C23.359 16.7231 23.4062 17.0784 23.4062 17.4476C23.4062 17.8186 23.359 18.1721 23.275 18.4662C23.1875 18.7706 23.0807 18.9421 23.0055 19.0174L22.3878 19.6352L23.0055 20.2547C23.0877 20.3369 23.1963 20.5644 23.0142 21.1087C22.8258 21.637 22.5242 22.1178 22.1305 22.5174L21.5128 23.1352L22.1305 23.7547C22.141 23.7634 22.2023 23.8422 22.2023 24.0522C22.192 24.3084 22.1193 24.5583 21.9905 24.7801C21.7017 25.2841 21.1103 25.7619 20.125 25.7619Z" fill="#D7D7D7"/>
</g>
<defs>
<clipPath id="clip0_12_289">
<rect width="28" height="28" fill="white"/>
</clipPath>
</defs>
</svg>
